HIERARCHY
ROOT Hips
{
	OFFSET -0.001795 -0.223333 0.028219
	CHANNELS 6 Xposition Yposition Zposition Zrotation Yrotation Xrotation
	JOINT LeftUpLeg
	{
		OFFSET 0.069520 -0.091406 -0.006815
		CHANNELS 3 Zrotation Yrotation Xrotation
		JOINT LeftLeg
		{
			OFFSET 0.034277 -0.375199 -0.004496
			CHANNELS 3 Zrotation Yrotation Xrotation
			JOINT LeftFoot
			{
				OFFSET -0.013596 -0.397961 -0.043693
				CHANNELS 3 Zrotation Yrotation Xrotation
				JOINT LeftToe
				{
					OFFSET 0.026358 -0.055791 0.119288
					CHANNELS 3 Zrotation Yrotation Xrotation
					End Site
					{
						OFFSET 0.000000 0.000000 0.000000
					}
				}
			}
		}
	}
	JOINT RightUpLeg
	{
		OFFSET -0.067670 -0.090522 -0.004320
		CHANNELS 3 Zrotation Yrotation Xrotation
		JOINT RightLeg
		{
			OFFSET -0.038290 -0.382569 -0.008850
			CHANNELS 3 Zrotation Yrotation Xrotation
			JOINT RightFoot
			{
				OFFSET 0.015774 -0.398415 -0.042312
				CHANNELS 3 Zrotation Yrotation Xrotation
				JOINT RightToe
				{
					OFFSET -0.025372 -0.048144 0.123348
					CHANNELS 3 Zrotation Yrotation Xrotation
					End Site
					{
						OFFSET 0.000000 0.000000 0.000000
					}
				}
			}
		}
	}
	JOINT Spine
	{
		OFFSET -0.002533 0.108963 -0.026696
		CHANNELS 3 Zrotation Yrotation Xrotation
		JOINT Spine1
		{
			OFFSET 0.005487 0.135180 0.001092
			CHANNELS 3 Zrotation Yrotation Xrotation
			JOINT Spine2
			{
				OFFSET 0.001457 0.052922 0.025425
				CHANNELS 3 Zrotation Yrotation Xrotation
				JOINT Neck
				{
					OFFSET -0.002778 0.213870 -0.042857
					CHANNELS 3 Zrotation Yrotation Xrotation
					JOINT Head
					{
						OFFSET 0.005152 0.064970 0.051349
						CHANNELS 3 Zrotation Yrotation Xrotation
						End Site
						{
							OFFSET 0.000000 0.000000 0.000000
						}
					}
				}
				JOINT LeftShoulder
				{
					OFFSET 0.078845 0.121749 -0.034090
					CHANNELS 3 Zrotation Yrotation Xrotation
					JOINT LeftArm
					{
						OFFSET 0.090977 0.030469 -0.008868
						CHANNELS 3 Zrotation Yrotation Xrotation
						JOINT LeftForeArm
						{
							OFFSET 0.259612 -0.012772 -0.027456
							CHANNELS 3 Zrotation Yrotation Xrotation
							JOINT LeftHand
							{
								OFFSET 0.249234 0.008986 -0.001171
								CHANNELS 3 Zrotation Yrotation Xrotation
								End Site
								{
									OFFSET 0.000000 0.000000 0.000000
								}
							}
						}
					}
				}
				JOINT RightShoulder
				{
					OFFSET -0.081759 0.118833 -0.038615
					CHANNELS 3 Zrotation Yrotation Xrotation
					JOINT RightArm
					{
						OFFSET -0.096012 0.032551 -0.009143
						CHANNELS 3 Zrotation Yrotation Xrotation
						JOINT RightForeArm
						{
							OFFSET -0.253742 -0.013329 -0.021401
							CHANNELS 3 Zrotation Yrotation Xrotation
							JOINT RightHand
							{
								OFFSET -0.255298 0.007772 -0.005559
								CHANNELS 3 Zrotation Yrotation Xrotation
								End Site
								{
									OFFSET 0.000000 0.000000 0.000000
								}
							}
						}
					}
				}
			}
		}
	}
}
MOTION
Frames: 16
Frame Time: 0.050000
0.000000 0.867599 0.000000 -2.597579 25.459346 -3.532856 24.750404 -2.507828 -2.551805 -10.821010 0.673870 19.450539 9.514647 18.612331 4.492578 0.000000 0.000000 0.000000 -22.862001 -3.614201 -11.154298 10.466968 -4.543826 21.320092 -10.107588 -20.706844 15.984954 0.000000 0.000000 0.000000 -3.837354 -0.321640 10.132681 7.075237 -0.862683 -20.352084 0.296101 -12.967853 17.968145 -2.959541 3.262913 -18.335789 0.000000 0.000000 0.000000 -16.146960 -10.778298 3.725929 -47.705146 -37.413715 7.988511 -137.927908 -82.387566 138.121439 0.000000 0.000000 0.000000 10.460331 6.833470 2.910652 38.951706 5.608727 -3.546267 -51.047447 49.293155 -20.354090 0.000000 0.000000 0.000000
-0.004143 0.852607 -0.004076 -2.960479 26.510845 -3.579203 27.150511 -2.729553 -4.416455 -13.647952 1.129892 21.233168 10.106424 18.766814 0.795886 0.000000 0.000000 0.000000 -25.663319 -4.986414 -13.503543 12.611921 -6.455395 25.964968 -7.169114 -15.740306 14.301694 0.000000 0.000000 0.000000 -5.857131 -0.253241 10.970569 8.592312 -1.241444 -21.291907 0.055035 -11.771364 19.216311 -0.076307 1.411053 -15.739043 0.000000 0.000000 0.000000 -17.352987 -13.220108 4.534503 -46.086032 -40.637947 8.917721 -160.793598 -82.698416 163.080847 0.000000 0.000000 0.000000 11.196182 6.878497 3.297708 39.637918 8.779339 -2.894594 -55.164139 50.742057 -22.438269 0.000000 0.000000 0.000000
-0.013607 0.837728 -0.004205 -3.712678 26.603381 -3.662975 29.745842 -2.840781 -6.603268 -15.578891 1.526509 24.094040 10.747224 19.607544 -1.411053 0.000000 0.000000 0.000000 -27.529420 -6.311053 -16.506115 12.236487 -6.839243 28.747278 -6.595220 -14.601007 15.920734 0.000000 0.000000 0.000000 -5.983800 -0.280501 11.804439 9.895504 -1.659790 -20.769514 -1.010405 -10.395513 17.956805 1.771889 0.348401 -16.074503 0.000000 0.000000 0.000000 -15.836491 -15.145896 5.122827 -44.888452 -43.904288 10.046572 154.496052 -84.488230 -148.114897 0.000000 0.000000 0.000000 14.354512 6.454386 3.497491 35.147767 10.970459 -2.147791 -48.938324 49.427536 -18.799091 0.000000 0.000000 0.000000
-0.029410 0.815085 0.000759 -4.139853 28.351684 -5.093978 32.404825 -3.276365 -7.532794 -16.650943 1.649649 26.404741 10.935679 18.855525 -5.878812 0.000000 0.000000 0.000000 -30.889086 -8.354055 -17.791123 10.870062 -6.951001 32.061390 -6.641730 -14.560253 20.816900 0.000000 0.000000 0.000000 -6.298315 -0.462257 14.403727 9.918954 -1.646943 -20.982583 -1.319198 -12.135025 16.814176 2.890702 -0.411345 -17.318254 0.000000 0.000000 0.000000 -16.396633 -16.324119 5.829778 -41.453390 -47.744996 10.677134 112.261855 -82.051004 -100.942501 0.000000 0.000000 0.000000 14.285486 8.081058 4.102234 34.273356 13.469139 -1.346998 -46.571088 48.487363 -17.625678 0.000000 0.000000 0.000000
-0.053170 0.788705 0.012551 -3.887425 28.297652 -5.965059 34.971673 -3.945872 -6.383499 -17.434079 1.905064 26.446221 11.530073 19.023727 -10.101874 0.000000 0.000000 0.000000 -32.957530 -10.219202 -20.583179 9.621293 -7.160105 36.836915 -9.183052 -18.425458 24.257003 0.000000 0.000000 0.000000 -7.380411 -0.411984 14.770845 9.590330 -1.685854 -19.238908 -1.876718 -10.792555 14.640699 2.943449 -0.403773 -16.003877 0.000000 0.000000 0.000000 -14.460088 -19.598055 6.983742 -36.930902 -53.428684 11.195356 78.323096 -73.448243 -60.058507 0.000000 0.000000 0.000000 14.904746 10.495840 5.492777 29.882917 13.480781 -1.201850 -38.972899 49.303018 -14.704026 0.000000 0.000000 0.000000
-0.086794 0.757500 0.033055 -3.300411 28.193629 -5.576502 37.386747 -4.446772 -6.235520 -16.570498 1.820173 26.846685 11.870394 19.148834 -13.075981 0.000000 0.000000 0.000000 -34.833050 -12.491523 -24.477497 10.450316 -9.051738 44.226412 -10.861253 -21.384953 21.962451 0.000000 0.000000 0.000000 -8.502917 -0.254828 13.036414 10.799564 -2.318054 -17.506683 -2.661681 -12.015598 11.856175 2.668932 -0.554645 -14.088622 0.000000 0.000000 0.000000 -13.713906 -17.299902 6.077213 -31.201977 -59.281228 10.768517 66.410273 -63.400254 -41.823728 0.000000 0.000000 0.000000 10.937014 14.548757 6.625078 24.916500 15.992952 -0.417176 -28.932575 43.321680 -9.148097 0.000000 0.000000 0.000000
-0.131859 0.728511 0.064134 -2.152309 26.679076 -6.440332 40.862038 -5.064396 -4.971936 -16.624473 2.141162 28.849388 10.716070 18.093853 -9.482274 0.000000 0.000000 0.000000 -35.027609 -13.678380 -28.298395 11.130387 -11.364668 54.496358 -10.568917 -22.435025 11.076430 0.000000 0.000000 0.000000 -8.507650 -0.206077 11.550467 7.095456 -1.029530 -17.441196 -1.976812 -11.245466 12.643004 2.068783 -0.428077 -11.787774 0.000000 0.000000 0.000000 -13.085480 -18.273082 6.543857 -24.905349 -60.625212 7.846338 67.712679 -55.196093 -36.733778 0.000000 0.000000 0.000000 9.418213 18.304141 8.087278 18.726819 15.850038 -0.586642 -24.478873 37.593599 -6.533897 0.000000 0.000000 0.000000
-0.182673 0.705960 0.103380 -2.407314 24.946273 -8.477756 45.968071 -4.794279 -7.376094 -14.777817 1.862356 37.958497 6.684158 12.980089 -1.020420 0.000000 0.000000 0.000000 -32.529057 -12.420253 -29.440438 11.795678 -13.603513 62.052619 -11.128034 -25.326500 -1.379620 0.000000 0.000000 0.000000 -6.795311 -0.251920 10.117111 4.860310 -0.193556 -19.916305 -2.523646 -8.769246 16.563527 4.670541 -2.309900 -11.071103 0.000000 0.000000 0.000000 -10.860380 -15.974603 5.182854 -25.982025 -60.749301 7.778067 73.343284 -52.758350 -39.019520 0.000000 0.000000 0.000000 5.430245 20.949658 8.698799 16.510049 15.256069 -0.819503 -22.058244 31.411745 -4.594264 0.000000 0.000000 0.000000
-0.230687 0.690305 0.141511 -1.596557 24.958940 -10.452464 45.032771 -2.636438 -13.528178 -14.303452 1.001953 50.199839 6.473813 11.393319 -5.442963 0.000000 0.000000 0.000000 -31.174081 -11.923642 -29.588227 11.454940 -15.572692 69.982708 -11.430996 -27.310835 -8.847875 0.000000 0.000000 0.000000 -7.466290 -0.281857 10.125645 4.628394 -0.208127 -18.232672 -2.240016 -6.648824 14.766843 6.566273 -4.375829 -7.013730 0.000000 0.000000 0.000000 -11.782467 -13.155254 3.610305 -25.660194 -57.256172 6.890407 84.417098 -58.128425 -52.561047 0.000000 0.000000 0.000000 5.317189 18.528413 7.830136 13.878555 13.795867 -0.937317 -17.853328 27.927763 -2.983091 0.000000 0.000000 0.000000
-0.271035 0.673819 0.171385 -2.176080 24.071719 -12.725800 44.010196 -0.970539 -18.683043 -22.328715 5.499008 59.464818 10.021422 17.204022 -23.750596 0.000000 0.000000 0.000000 -29.482169 -11.136919 -29.839557 12.472072 -18.323491 76.026193 -11.862202 -29.090831 -13.153214 0.000000 0.000000 0.000000 -5.415492 -0.453870 12.484423 1.551377 0.825825 -20.716480 -0.470880 -5.077452 16.265568 8.280780 -5.113882 -9.615848 0.000000 0.000000 0.000000 -11.006137 -13.252137 3.549223 -27.958316 -51.670234 6.424156 97.277813 -58.582459 -64.483205 0.000000 0.000000 0.000000 9.006600 15.351788 7.398419 13.158670 10.367617 -1.321457 -18.923720 27.390265 -3.136393 0.000000 0.000000 0.000000
-0.304471 0.661012 0.192368 -2.925836 24.770301 -14.248270 39.860723 0.079555 -23.743881 -25.211472 7.066030 64.824270 10.396751 19.384602 -29.406725 0.000000 0.000000 0.000000 -28.861502 -10.673878 -28.275547 14.726080 -22.056706 78.181341 -12.448497 -31.530352 -17.622722 0.000000 0.000000 0.000000 -4.218519 -0.731552 15.151417 0.736000 1.092472 -21.913700 1.478298 -7.236765 17.538879 7.240589 -4.406004 -10.451847 0.000000 0.000000 0.000000 -12.195148 -9.117594 2.037050 -25.726309 -47.775261 4.868065 106.081934 -56.239774 -69.692753 0.000000 0.000000 0.000000 11.022746 11.587080 5.854190 15.590291 9.802869 -1.577809 -19.795723 26.251656 -3.181578 0.000000 0.000000 0.000000
-0.334386 0.651642 0.205278 -2.109184 22.665449 -15.773512 36.771920 0.396095 -21.796838 -20.181368 3.794862 65.578568 11.040257 21.132791 -27.646426 0.000000 0.000000 0.000000 -30.720750 -11.710180 -30.469710 4.275931 -9.259364 80.163194 14.158794 40.566737 -4.263407 0.000000 0.000000 0.000000 -4.647919 -1.102435 20.730361 3.427584 0.320237 -27.384136 2.815400 -6.632256 21.322246 5.364688 -2.567814 -14.086521 0.000000 0.000000 0.000000 -18.728801 -10.097454 2.484293 -18.178383 -40.332309 1.634972 110.270825 -55.236079 -72.500331 0.000000 0.000000 0.000000 14.862700 10.236502 5.599875 16.689323 7.148982 -2.020824 -25.170756 25.833643 -4.342004 0.000000 0.000000 0.000000
-0.364572 0.642690 0.216621 -1.669100 18.032280 -15.038943 38.488746 0.525018 -17.528987 -16.691442 2.864410 62.641815 11.218796 21.347630 -27.868754 0.000000 0.000000 0.000000 -35.812245 -13.119431 -32.003120 -0.048364 -1.135309 68.196955 154.063844 55.915857 123.547210 0.000000 0.000000 0.000000 -3.172179 -1.176834 21.678885 8.399798 -1.188358 -24.812893 2.552393 -6.187371 21.108434 3.512876 -1.121017 -16.194988 0.000000 0.000000 0.000000 -20.285389 -8.917548 2.454414 -20.540466 -35.740270 1.556847 115.820481 -52.256850 -73.407979 0.000000 0.000000 0.000000 16.436214 12.501422 6.407912 17.445176 7.298923 -1.953014 -29.411610 22.536590 -4.558658 0.000000 0.000000 0.000000
-0.401644 0.630968 0.233586 -0.913302 12.141881 -12.798274 39.474513 0.456902 -11.543156 -12.110004 1.731315 56.985189 11.547913 22.580118 -28.619849 0.000000 0.000000 0.000000 -43.272689 -14.177525 -32.571046 9.251332 -5.131332 54.473918 4.281075 -3.717093 30.707300 0.000000 0.000000 0.000000 1.311444 -1.381246 19.524244 11.025817 -2.633997 -19.664002 0.596028 -3.160052 16.251326 2.980180 -1.322730 -10.067091 0.000000 0.000000 0.000000 -21.514161 -8.684001 2.182151 -25.560502 -30.875827 1.989803 113.000221 -58.762320 -77.607682 0.000000 0.000000 0.000000 17.756309 11.254292 5.553576 21.638360 10.011535 -1.581800 -35.533319 23.448579 -5.818051 0.000000 0.000000 0.000000
-0.454078 0.618923 0.263718 2.080659 4.905719 -10.941038 41.242844 -0.125359 -2.806876 -11.952844 3.543814 49.050805 11.297472 22.817710 -21.596692 0.000000 0.000000 0.000000 -47.199791 -13.451442 -35.810503 21.156690 -11.171956 53.034389 -14.323902 -30.073495 10.970240 0.000000 0.000000 0.000000 4.712751 -1.246101 15.709928 11.974204 -3.602367 -15.879715 -2.988167 -1.437206 13.995792 1.628012 -0.298948 -10.917785 0.000000 0.000000 0.000000 -24.898972 -8.793096 2.688744 -30.122646 -25.550381 1.529193 100.658842 -74.275459 -80.762616 0.000000 0.000000 0.000000 19.996187 13.386052 6.248700 27.785950 12.226414 -1.074436 -42.665251 25.652215 -8.093297 0.000000 0.000000 0.000000
-0.520071 0.608883 0.304743 3.360724 0.796595 -12.417796 45.070454 -0.845645 3.666772 -8.698507 2.291411 44.662610 7.577218 14.811785 -4.675378 0.000000 0.000000 0.000000 -46.874714 -11.680493 -36.388800 28.059697 -15.613227 56.993998 -14.534465 -35.280129 -5.492672 0.000000 0.000000 0.000000 7.264382 -1.417313 16.010061 10.247228 -2.918499 -17.417433 -1.557999 -3.952578 14.524609 -1.671767 1.420070 -3.281836 0.000000 0.000000 0.000000 -28.089529 -7.184904 3.457819 -36.217433 -20.563250 0.161034 -40.698964 -84.129569 42.471968 0.000000 0.000000 0.000000 20.452644 14.010547 5.170337 31.451558 15.152457 -0.062314 -45.145083 28.559358 -10.509437 0.000000 0.000000 0.000000
